<svg width="195" height="165" viewBox="0 0 195 165" fill="none" xmlns="http://www.w3.org/2000/svg">
<g clip-path="url(#clip0_0_1)">
<path d="M35.766 0.123497C28.136 0.818217 20.8069 3.62797 14.8125 8.15137C9.659 12.0418 6.03302 16.3413 3.43312 21.6521C0.941223 26.7158 -0.11571 31.3705 0.0231569 36.55C0.0694459 38.2713 0.146594 39.105 0.34718 40.4636C1.14952 45.6971 3.44083 50.8458 6.93566 55.2688C7.77658 56.3418 8.37062 57.021 9.58185 58.2947L10.6542 59.4294L10.4228 60.2245C10.2916 60.6645 10.0987 61.3823 9.99074 61.8301C9.26554 64.8019 10.4228 67.8355 12.8992 69.4565C13.771 70.02 14.3188 70.2207 17.3584 71.0853C18.8628 71.5098 24.5949 73.1308 30.0879 74.6901C45.2553 78.9896 44.5147 78.8044 45.9805 78.7117C48.1561 78.5728 50.1619 77.4227 51.35 75.6395C51.8283 74.9217 52.0366 74.4122 52.4687 72.9456C52.9161 71.4172 52.9547 71.3246 53.1399 71.3246C53.3867 71.3246 55.7012 70.7302 56.7427 70.3983C59.7361 69.4411 63.0457 67.8741 65.4065 66.2917C72.697 61.4055 77.3028 53.9874 78.6143 45.0024C78.8766 43.1807 78.9537 41.9302 78.9537 39.6376C78.9537 37.3682 78.8843 36.3416 78.6066 34.3886C77.0096 23.2499 70.3825 12.7983 60.9473 6.52264C59.1574 5.3339 58.2085 4.79356 56.3569 3.89042C51.8901 1.72135 47.5157 0.517172 42.586 0.115778C40.9118 -0.023166 37.3321 -0.023166 35.766 0.123497ZM40.9658 6.0209C45.803 6.32194 49.8996 7.41034 54.0425 9.49449C57.3522 11.1618 59.9906 13.0916 62.7988 15.9014C65.5993 18.6957 67.7672 21.7216 69.4722 25.2029C72.4733 31.3396 73.5611 37.7542 72.6661 44.0375C72.0412 48.4142 70.4365 52.3587 67.9292 55.6934C65.7305 58.6112 62.822 61.0427 59.52 62.7177C56.7967 64.0995 53.9576 65.0566 51.0723 65.5738C49.7453 65.8131 49.1899 66.0524 48.5341 66.6545C48.2872 66.8861 47.9786 67.272 47.8475 67.5268C47.7009 67.7969 47.3614 68.8236 47.022 70.0123C46.698 71.1316 46.3817 72.1351 46.3122 72.2508C46.1579 72.521 45.8262 72.714 45.5407 72.714C45.3016 72.714 44.0363 72.3744 40.6572 71.4017C38.2116 70.6993 23.8466 66.6236 19.4183 65.3731C17.775 64.91 16.3401 64.4777 16.232 64.4082C15.9852 64.2461 15.8154 63.9142 15.8154 63.6132C15.8154 63.4819 16.0777 62.463 16.3941 61.3515C17.0421 59.1206 17.1193 58.6729 16.9804 57.9551C16.7798 56.9361 16.5561 56.6197 14.8665 54.9678C12.6832 52.8296 11.4103 51.3243 10.1527 49.3868C7.84601 45.8283 6.46505 41.8993 6.08702 37.8005C5.96359 36.4496 6.04074 33.7325 6.24904 32.3817C6.85079 28.3677 8.62521 24.045 11.1325 20.4556C12.7681 18.1167 14.5193 16.2333 16.9495 14.1954C21.401 10.4517 26.786 7.84261 32.3252 6.72333C35.6272 6.05949 38.1885 5.85108 40.9658 6.0209Z" fill="white" fill-opacity="0.08"/>
<path d="M33.0118 27.9663C32.2172 28.2982 31.6772 28.8154 31.3377 29.5565C31.0831 30.1045 31.0137 31.0462 31.1911 31.6329C31.3686 32.2427 33.9839 36.7584 34.4237 37.2215C35.8663 38.7268 38.4431 38.2713 39.338 36.357C39.5155 35.9865 39.5386 35.8321 39.5386 35.1219C39.5386 34.4118 39.5155 34.2574 39.338 33.8869C38.8906 32.9374 36.5375 28.9698 36.2366 28.6533C36.0592 28.4681 35.6889 28.2133 35.4189 28.0744C34.9868 27.866 34.8325 27.8274 34.1845 27.8042C33.5442 27.7888 33.3822 27.8119 33.0118 27.9663Z" fill="white" fill-opacity="0.08"/>
<path d="M22.7588 31.4245C19.3797 31.7178 16.3555 33.802 14.8202 36.8742C14.4113 37.6924 14.0796 38.6882 13.933 39.5604C13.7787 40.4481 13.771 42.154 13.9253 43.0186C14.6273 47.048 17.6593 50.1742 21.7019 51.031C22.6508 51.2394 24.4715 51.278 25.3818 51.1082C27.272 50.7686 29.0927 49.8731 30.4428 48.6072C34.5702 44.7477 34.7091 38.2945 30.7437 34.3037C28.6298 32.1732 25.7907 31.1543 22.7588 31.4245ZM24.6952 37.5612C26.1842 38.0012 27.218 39.1359 27.5266 40.6874C27.6346 41.2432 27.6346 41.3513 27.5188 41.9147C27.2951 43.0572 26.7242 43.9449 25.8293 44.5315C25.0964 45.0178 24.4638 45.1799 23.5071 45.1413C22.7974 45.1182 22.6662 45.0873 22.1416 44.8403C19.7037 43.6824 19.0711 40.6565 20.8532 38.7036C21.8253 37.6384 23.376 37.1752 24.6952 37.5612Z" fill="white" fill-opacity="0.08"/>
<path d="M47.9478 31.7719C47.346 31.9648 42.7711 34.6356 42.3854 35.0293C42.2002 35.2069 41.9379 35.5928 41.799 35.8784C41.5676 36.3493 41.5444 36.4496 41.5444 37.1289C41.5521 38.0552 41.7373 38.5724 42.2851 39.1745C42.856 39.792 43.4886 40.0853 44.3604 40.1239C44.8078 40.1471 45.1627 40.1162 45.4096 40.0467C45.9496 39.8846 50.4937 37.2447 50.9411 36.8279C51.1494 36.6272 51.4117 36.2798 51.5583 35.9788C51.7897 35.5079 51.8052 35.423 51.8052 34.6588C51.8052 33.8946 51.7897 33.8097 51.5506 33.3311C51.2343 32.6827 50.6248 32.1115 50.0076 31.8722C49.429 31.6483 48.4801 31.602 47.9478 31.7719Z" fill="white" fill-opacity="0.08"/>
<path d="M51.5738 39.8383C49.2207 40.1548 47.1455 41.2278 45.5331 42.9491C42.3854 46.3378 42.0228 51.525 44.6844 55.4C45.2399 56.2183 46.4203 57.3761 47.2149 57.9087C49.0047 59.0898 50.702 59.5992 52.8467 59.6069C55.4466 59.6147 57.8074 58.6729 59.6589 56.8975C60.4921 56.0948 61.0785 55.3228 61.5722 54.3965C62.0351 53.5011 62.2125 53.0457 62.4749 52.0731C62.6677 51.3398 62.6832 51.1931 62.6754 49.6725C62.6754 48.1749 62.66 47.9974 62.4749 47.3027C61.9657 45.4269 61.1325 43.9603 59.8441 42.6635C58.4708 41.2972 56.6964 40.3478 54.7369 39.9464C53.9962 39.792 52.3221 39.738 51.5738 39.8383ZM53.8111 45.9441C54.7291 46.1757 55.8401 47.0711 56.2798 47.9357C57.005 49.3637 56.7813 51.0851 55.7166 52.2661C53.5565 54.6744 49.6914 53.586 49.0202 50.3903C48.943 50.0353 48.9199 49.6725 48.9507 49.4023C49.2285 46.9476 51.4658 45.3575 53.8111 45.9441Z" fill="white" fill-opacity="0.08"/>
<path d="M36.144 51.0156C36.0206 51.1005 35.1257 51.9419 34.1536 52.8913C32.5181 54.4969 32.3946 54.6281 32.4024 54.8829C32.4024 55.1839 32.5566 55.4541 32.7958 55.5853C32.9964 55.6856 37.5559 56.967 37.7333 56.967C38.1113 56.967 38.4971 56.5811 38.4971 56.2183C38.4971 56.1411 38.2193 54.9832 37.8799 53.6555C37.4633 51.9959 37.2241 51.1777 37.1238 51.0773C36.9001 50.8612 36.4218 50.8303 36.144 51.0156Z" fill="white" fill-opacity="0.08"/>
</g>
<g clip-path="url(#clip1_0_1)">
<path d="M151.766 86.1235C144.136 86.8182 136.807 89.628 130.813 94.1514C125.659 98.0418 122.033 102.341 119.433 107.652C116.941 112.716 115.884 117.37 116.023 122.55C116.069 124.271 116.147 125.105 116.347 126.464C117.15 131.697 119.441 136.846 122.936 141.269C123.777 142.342 124.371 143.021 125.582 144.295L126.654 145.429L126.423 146.224C126.292 146.664 126.099 147.382 125.991 147.83C125.266 150.802 126.423 153.836 128.899 155.457C129.771 156.02 130.319 156.221 133.358 157.085C134.863 157.51 140.595 159.131 146.088 160.69C161.255 164.99 160.515 164.804 161.98 164.712C164.156 164.573 166.162 163.423 167.35 161.64C167.828 160.922 168.037 160.412 168.469 158.946C168.916 157.417 168.955 157.325 169.14 157.325C169.387 157.325 171.701 156.73 172.743 156.398C175.736 155.441 179.046 153.874 181.406 152.292C188.697 147.406 193.303 139.987 194.614 131.002C194.877 129.181 194.954 127.93 194.954 125.638C194.954 123.368 194.884 122.342 194.607 120.389C193.01 109.25 186.383 98.7983 176.947 92.5226C175.157 91.3339 174.209 90.7936 172.357 89.8904C167.89 87.7214 163.516 86.5172 158.586 86.1158C156.912 85.9768 153.332 85.9768 151.766 86.1235ZM156.966 92.0209C161.803 92.3219 165.9 93.4103 170.042 95.4945C173.352 97.1618 175.991 99.0916 178.799 101.901C181.599 104.696 183.767 107.722 185.472 111.203C188.473 117.34 189.561 123.754 188.666 130.038C188.041 134.414 186.437 138.359 183.929 141.693C181.73 144.611 178.822 147.043 175.52 148.718C172.797 150.099 169.958 151.057 167.072 151.574C165.745 151.813 165.19 152.052 164.534 152.654C164.287 152.886 163.979 153.272 163.847 153.527C163.701 153.797 163.361 154.824 163.022 156.012C162.698 157.132 162.382 158.135 162.312 158.251C162.158 158.521 161.826 158.714 161.541 158.714C161.302 158.714 160.036 158.374 156.657 157.402C154.212 156.699 139.847 152.624 135.418 151.373C133.775 150.91 132.34 150.478 132.232 150.408C131.985 150.246 131.815 149.914 131.815 149.613C131.815 149.482 132.078 148.463 132.394 147.351C133.042 145.121 133.119 144.673 132.98 143.955C132.78 142.936 132.556 142.62 130.867 140.968C128.683 138.83 127.41 137.324 126.153 135.387C123.846 131.828 122.465 127.899 122.087 123.8C121.964 122.45 122.041 119.732 122.249 118.382C122.851 114.368 124.625 110.045 127.133 106.456C128.768 104.117 130.519 102.233 132.95 100.195C137.401 96.4517 142.786 93.8426 148.325 92.7233C151.627 92.0595 154.188 91.8511 156.966 92.0209Z" fill="white" fill-opacity="0.08"/>
<path d="M149.012 113.966C148.217 114.298 147.677 114.815 147.338 115.556C147.083 116.105 147.014 117.046 147.191 117.633C147.369 118.243 149.984 122.758 150.424 123.222C151.866 124.727 154.443 124.271 155.338 122.357C155.515 121.986 155.539 121.832 155.539 121.122C155.539 120.412 155.515 120.257 155.338 119.887C154.891 118.937 152.538 114.97 152.237 114.653C152.059 114.468 151.689 114.213 151.419 114.074C150.987 113.866 150.833 113.827 150.184 113.804C149.544 113.789 149.382 113.812 149.012 113.966Z" fill="white" fill-opacity="0.08"/>
<path d="M138.759 117.424C135.38 117.718 132.355 119.802 130.82 122.874C130.411 123.692 130.08 124.688 129.933 125.56C129.779 126.448 129.771 128.154 129.925 129.019C130.627 133.048 133.659 136.174 137.702 137.031C138.651 137.239 140.471 137.278 141.382 137.108C143.272 136.769 145.093 135.873 146.443 134.607C150.57 130.748 150.709 124.294 146.744 120.304C144.63 118.173 141.791 117.154 138.759 117.424ZM140.695 123.561C142.184 124.001 143.218 125.136 143.527 126.687C143.635 127.243 143.635 127.351 143.519 127.915C143.295 129.057 142.724 129.945 141.829 130.532C141.096 131.018 140.464 131.18 139.507 131.141C138.797 131.118 138.666 131.087 138.142 130.84C135.704 129.682 135.071 126.657 136.853 124.704C137.825 123.638 139.376 123.175 140.695 123.561Z" fill="white" fill-opacity="0.08"/>
<path d="M163.948 117.772C163.346 117.965 158.771 120.636 158.385 121.029C158.2 121.207 157.938 121.593 157.799 121.878C157.568 122.349 157.544 122.45 157.544 123.129C157.552 124.055 157.737 124.572 158.285 125.174C158.856 125.792 159.489 126.085 160.36 126.124C160.808 126.147 161.163 126.116 161.41 126.047C161.95 125.885 166.494 123.245 166.941 122.828C167.149 122.627 167.412 122.28 167.558 121.979C167.79 121.508 167.805 121.423 167.805 120.659C167.805 119.895 167.79 119.81 167.551 119.331C167.234 118.683 166.625 118.111 166.008 117.872C165.429 117.648 164.48 117.602 163.948 117.772Z" fill="white" fill-opacity="0.08"/>
<path d="M167.574 125.838C165.221 126.155 163.145 127.228 161.533 128.949C158.385 132.338 158.023 137.525 160.684 141.4C161.24 142.218 162.42 143.376 163.215 143.909C165.005 145.09 166.702 145.599 168.847 145.607C171.447 145.615 173.807 144.673 175.659 142.898C176.492 142.095 177.078 141.323 177.572 140.397C178.035 139.501 178.213 139.046 178.475 138.073C178.668 137.34 178.683 137.193 178.675 135.672C178.675 134.175 178.66 133.997 178.475 133.303C177.966 131.427 177.132 129.96 175.844 128.664C174.471 127.297 172.696 126.348 170.737 125.946C169.996 125.792 168.322 125.738 167.574 125.838ZM169.811 131.944C170.729 132.176 171.84 133.071 172.28 133.936C173.005 135.364 172.781 137.085 171.717 138.266C169.556 140.674 165.691 139.586 165.02 136.39C164.943 136.035 164.92 135.672 164.951 135.402C165.228 132.948 167.466 131.357 169.811 131.944Z" fill="white" fill-opacity="0.08"/>
<path d="M152.144 137.016C152.021 137.1 151.126 137.942 150.154 138.891C148.518 140.497 148.395 140.628 148.402 140.883C148.402 141.184 148.557 141.454 148.796 141.585C148.996 141.686 153.556 142.967 153.733 142.967C154.111 142.967 154.497 142.581 154.497 142.218C154.497 142.141 154.219 140.983 153.88 139.656C153.463 137.996 153.224 137.178 153.124 137.077C152.9 136.861 152.422 136.83 152.144 137.016Z" fill="white" fill-opacity="0.08"/>
</g>
<defs>
<clipPath id="clip0_0_1">
<rect width="79" height="78.7349" fill="white"/>
</clipPath>
<clipPath id="clip1_0_1">
<rect width="79" height="78.7349" fill="white" transform="translate(116 86)"/>
</clipPath>
</defs>
</svg>
